[Header]
FileType HTR
DataType HTRS
FileVersion 1
NumSegments 64
NumFrames 4
DataFrameRate 30
EulerRotationOrder ZYX
CalibrationUnits mm
RotationUnits Degrees
GlobalAxisofGravity Y
BoneLengthAxis Y
ScaleFactor 1.0
[SegmentNames&Hierarchy]
Hips	GLOBAL
Spine	Hips
Spine1	Spine
Spine2	Spine1
Neck	Spine2
Head	Neck
LeftEye	Head
RightEye	Head
LeftShoulder	Spine2
LeftArm	LeftShoulder
LeftForeArm	LeftArm
LeftHand	LeftForeArm
LeftHandThumb1	LeftHand
LeftHandThumb2	LeftHandThumb1
LeftHandThumb3	LeftHandThumb2
LeftHandThumb4	LeftHandThumb3
LeftHandIndex1	LeftHand
LeftHandIndex2	LeftHandIndex1
LeftHandIndex3	LeftHandIndex2
LeftHandIndex4	LeftHandIndex3
LeftHandMiddle1	LeftHand
LeftHandMiddle2	LeftHandMiddle1
LeftHandMiddle3	LeftHandMiddle2
LeftHandMiddle4	LeftHandMiddle3
LeftHandRing1	LeftHand
LeftHandRing2	LeftHandRing1
LeftHandRing3	LeftHandRing2
LeftHandRing4	LeftHandRing3
LeftHandPinky1	LeftHand
LeftHandPinky2	LeftHandPinky1
LeftHandPinky3	LeftHandPinky2
LeftHandPinky4	LeftHandPinky3
RightShoulder	Spine2
RightArm	RightShoulder
RightForeArm	RightArm
RightHand	RightForeArm
RightHandPinky1	RightHand
RightHandPinky2	RightHandPinky1
RightHandPinky3	RightHandPinky2
RightHandPinky4	RightHandPinky3
RightHandRing1	RightHand
RightHandRing2	RightHandRing1
RightHandRing3	RightHandRing2
RightHandRing4	RightHandRing3
RightHandMiddle1	RightHand
RightHandMiddle2	RightHandMiddle1
RightHandMiddle3	RightHandMiddle2
RightHandMiddle4	RightHandMiddle3
RightHandIndex1	RightHand
RightHandIndex2	RightHandIndex1
RightHandIndex3	RightHandIndex2
RightHandIndex4	RightHandIndex3
RightHandThumb1	RightHand
RightHandThumb2	RightHandThumb1
RightHandThumb3	RightHandThumb2
RightHandThumb4	RightHandThumb3
LeftUpLeg	Hips
LeftLeg	LeftUpLeg
LeftFoot	LeftLeg
LeftToeBase	LeftFoot
RightUpLeg	Hips
RightLeg	RightUpLeg
RightFoot	RightLeg
RightToeBase	RightFoot
[BasePosition]
Hips	0	0	0	0	0	0	1
Spine	0	0	0	0	0	0	1
Spine1	0	0	0	0	0	0	1
Spine2	0	0	0	0	0	0	1
Neck	0	0	0	0	0	0	1
Head	0	0	0	0	0	0	1
LeftEye	0	0	0	0	0	0	1
RightEye	0	0	0	0	0	0	1
LeftShoulder	0	0	0	0	0	0	1
LeftArm	0	0	0	0	0	0	1
LeftForeArm	0	0	0	0	0	0	1
LeftHand	0	0	0	0	0	0	1
LeftHandThumb1	0	0	0	0	0	0	1
LeftHandThumb2	0	0	0	0	0	0	1
LeftHandThumb3	0	0	0	0	0	0	1
LeftHandThumb4	0	0	0	0	0	0	1
LeftHandIndex1	0	0	0	0	0	0	1
LeftHandIndex2	0	0	0	0	0	0	1
LeftHandIndex3	0	0	0	0	0	0	1
LeftHandIndex4	0	0	0	0	0	0	1
LeftHandMiddle1	0	0	0	0	0	0	1
LeftHandMiddle2	0	0	0	0	0	0	1
LeftHandMiddle3	0	0	0	0	0	0	1
LeftHandMiddle4	0	0	0	0	0	0	1
LeftHandRing1	0	0	0	0	0	0	1
LeftHandRing2	0	0	0	0	0	0	1
LeftHandRing3	0	0	0	0	0	0	1
LeftHandRing4	0	0	0	0	0	0	1
LeftHandPinky1	0	0	0	0	0	0	1
LeftHandPinky2	0	0	0	0	0	0	1
LeftHandPinky3	0	0	0	0	0	0	1
LeftHandPinky4	0	0	0	0	0	0	1
RightShoulder	0	0	0	0	0	0	1
RightArm	0	0	0	0	0	0	1
RightForeArm	0	0	0	0	0	0	1
RightHand	0	0	0	0	0	0	1
RightHandPinky1	0	0	0	0	0	0	1
RightHandPinky2	0	0	0	0	0	0	1
RightHandPinky3	0	0	0	0	0	0	1
RightHandPinky4	0	0	0	0	0	0	1
RightHandRing1	0	0	0	0	0	0	1
RightHandRing2	0	0	0	0	0	0	1
RightHandRing3	0	0	0	0	0	0	1
RightHandRing4	0	0	0	0	0	0	1
RightHandMiddle1	0	0	0	0	0	0	1
RightHandMiddle2	0	0	0	0	0	0	1
RightHandMiddle3	0	0	0	0	0	0	1
RightHandMiddle4	0	0	0	0	0	0	1
RightHandIndex1	0	0	0	0	0	0	1
RightHandIndex2	0	0	0	0	0	0	1
RightHandIndex3	0	0	0	0	0	0	1
RightHandIndex4	0	0	0	0	0	0	1
RightHandThumb1	0	0	0	0	0	0	1
RightHandThumb2	0	0	0	0	0	0	1
RightHandThumb3	0	0	0	0	0	0	1
RightHandThumb4	0	0	0	0	0	0	1
LeftUpLeg	0	0	0	0	0	0	1
LeftLeg	0	0	0	0	0	0	1
LeftFoot	0	0	0	0	0	0	1
LeftToeBase	0	0	0	0	0	0	1
RightUpLeg	0	0	0	0	0	0	1
RightLeg	0	0	0	0	0	0	1
RightFoot	0	0	0	0	0	0	1
RightToeBase	0	0	0	0	0	0	1
[Hips]
47	-10.63969707	1026.961426	19.47460938	-1.601747632	-6.004361153	-4.120963097	1.0
48	-9.7018013	1027.922485	19.43546104	-1.785922647	-6.182153225	-3.949242115	1.0
49	-8.65234375	1028.77002	19.19494438	-1.921797276	-6.29542923	-3.808066845	1.0
50	-7.583013058	1029.559448	18.861866	-2.037065744	-6.364953041	-3.686343193	1.0
[Spine]
47	0	101.8159943	1.315000057	3.651234865	1.451654196	2.633198261	1.0
48	0	101.8159943	1.315000057	3.631739855	1.44000268	2.667735577	1.0
49	0	101.8159943	1.315000057	3.606140137	1.428911686	2.692575455	1.0
50	0	101.8159943	1.315000057	3.578866959	1.41929996	2.714183092	1.0
[Spine1]
47	0	100.8349991	-10.00800037	1.398580551	0.4126630425	1.343277574	1.0
48	0	100.8349991	-10.00800037	1.379522562	0.3967368603	1.397037506	1.0
49	0	100.8349991	-10.00800037	1.355446577	0.381184876	1.440722942	1.0
50	0	100.8349991	-10.00800037	1.330535293	0.3676097095	1.479292035	1.0
[Spine2]
47	0	91	-13.73399925	1.374460459	0.4322294295	1.353015661	1.0
48	0	91	-13.73399925	1.355258346	0.4156904519	1.406599402	1.0
49	0	91	-13.73399925	1.331122637	0.3997848034	1.450026751	1.0
50	0	91	-13.73399925	1.306169152	0.3859159648	1.488318443	1.0
[Neck]
47	0	166.7169952	-25.16200066	7.07987833	0.556427896	-0.9469310641	1.0
48	0	166.7169952	-25.16200066	7.027798653	0.5009872317	-0.7436429262	1.0
49	0	166.7169952	-25.16200066	6.951794147	0.4352710545	-0.5308922529	1.0
50	0	166.7169952	-25.16200066	6.867901325	0.3630804121	-0.3197956979	1.0
[Head]
47	0	96.17900085	16.84999847	-8.514429092	3.691455841	-2.933468342	1.0
48	0	96.17900085	16.84999847	-8.396949768	3.601047516	-2.620935917	1.0
49	0	96.17900085	16.84999847	-8.230476379	3.459662676	-2.258516312	1.0
50	0	96.17900085	16.84999847	-8.063322067	3.279013395	-1.880043507	1.0
[LeftEye]
47	30.6760006	64.09500122	92.83599854	0	0	0	1.0
48	30.6760006	64.09500122	92.83599854	0	0	0	1.0
49	30.6760006	64.09500122	92.83599854	0	0	0	1.0
50	30.6760006	64.09500122	92.83599854	0	0	0	1.0
[RightEye]
47	-30.6760006	64.09500122	92.83499908	0	0	0	1.0
48	-30.6760006	64.09500122	92.83499908	0	0	0	1.0
49	-30.6760006	64.09500122	92.83499908	0	0	0	1.0
50	-30.6760006	64.09500122	92.83499908	0	0	0	1.0
[LeftShoulder]
47	45.70400238	109.4599991	-26.28000069	4.868985653	-16.20009995	-13.92687607	1.0
48	45.70400238	109.4599991	-26.28000069	4.873381138	-16.27263069	-13.84510517	1.0
49	45.70400238	109.4599991	-26.28000069	4.877912521	-16.3477478	-13.75704002	1.0
50	45.70400238	109.4599991	-26.28000069	4.884835243	-16.43257713	-13.66860294	1.0
[LeftArm]
47	105.923996	-5.24600029	-22.32099915	17.49000931	-2.868843079	-67.62081909	1.0
48	105.923996	-5.24600029	-22.32099915	18.49613953	-2.92299962	-67.77581024	1.0
49	105.923996	-5.24600029	-22.32099915	19.53961563	-3.107787848	-67.94528198	1.0
50	105.923996	-5.24600029	-22.32099915	20.57428741	-3.365679502	-68.11257935	1.0
[LeftForeArm]
47	278.414978	-0.0009999999311	0	7.499982075e-07	-1.250813723	-0.0002127580083	1.0
48	278.414978	-0.0009999999311	0	2.141451638e-08	-1.702052236	-0.0002091544593	1.0
49	278.414978	-0.0009999999311	0	-1.860818429e-06	-2.157226563	-0.0002101593127	1.0
50	278.414978	-0.0009999999311	0	-2.425265166e-06	-2.575661659	-0.0002097001707	1.0
[LeftHand]
47	283.2879944	0	0	-33.88620758	-5.064286232	-2.933269262	1.0
48	283.2879944	0	0	-34.03804779	-5.240022182	-2.913344622	1.0
49	283.2879944	0	0	-33.64178848	-5.281904221	-2.953724384	1.0
50	283.2879944	0	0	-33.06248474	-5.269552708	-3.058944702	1.0
[LeftHandThumb1]
47	24.6609993	-15.75	26.8239994	-0.4803999066	2.024298429	3.724126101	1.0
48	24.6609993	-15.75	26.8239994	-0.05506325886	1.978157043	3.311064005	1.0
49	24.6609993	-15.75	26.8239994	-0.003323199227	1.88628757	3.163425446	1.0
50	24.6609993	-15.75	26.8239994	-0.1532960981	1.772893906	3.1626091	1.0
[LeftHandThumb2]
47	32.29800034	-18.64699936	18.64699936	19.66521454	16.32426453	17.61445236	1.0
48	32.29800034	-18.64699936	18.64699936	19.66641808	16.31503105	17.64328957	1.0
49	32.29800034	-18.64699936	18.64699936	19.63365173	16.25481033	17.50701714	1.0
50	32.29800034	-18.64699936	18.64699936	19.58336258	16.16755295	17.28712463	1.0
[LeftHandThumb3]
47	26.52600098	-15.31499958	15.31499958	-12.90688419	4.661909103	11.14854336	1.0
48	26.52600098	-15.31499958	15.31499958	-12.95471096	4.729612827	11.22949219	1.0
49	26.52600098	-15.31499958	15.31499958	-12.90881348	4.685595512	11.30185509	1.0
50	26.52600098	-15.31499958	15.31499958	-12.81554794	4.585269928	11.37036419	1.0
[LeftHandThumb4]
47	19.54599953	-11.28499985	11.28499985	0	0	0	1.0
48	19.54599953	-11.28499985	11.28499985	0	0	0	1.0
49	19.54599953	-11.28499985	11.28499985	0	0	0	1.0
50	19.54599953	-11.28499985	11.28499985	0	0	0	1.0
[LeftHandIndex1]
47	91.09299469	-5.170999527	22.60099792	0.7128512859	-0.8132150173	-7.647996426	1.0
48	91.09299469	-5.170999527	22.60099792	0.7591845393	-0.8060501218	-7.607422352	1.0
49	91.09299469	-5.170999527	22.60099792	0.7300280929	-0.818779707	-7.559459686	1.0
50	91.09299469	-5.170999527	22.60099792	0.6611787677	-0.8412958384	-7.513646603	1.0
[LeftHandIndex2]
47	36.76399994	0	0	-0.2704128027	1.756976247	-17.4978981	1.0
48	36.76399994	0	0	-0.2715385854	1.760535598	-17.53452873	1.0
49	36.76399994	0	0	-0.2717075348	1.761064887	-17.53997612	1.0
50	36.76399994	0	0	-0.2714012861	1.760092139	-17.52996063	1.0
[LeftHandIndex3]
47	28.83100128	0	0	-0.05915780365	0.8294706345	-8.158525467	1.0
48	28.83100128	0	0	-0.05968538672	0.8331522346	-8.194972992	1.0
49	28.83100128	0	0	-0.0597647652	0.8337135315	-8.200511932	1.0
50	28.83100128	0	0	-0.05962215364	0.8327270746	-8.190728188	1.0
[LeftHandIndex4]
47	23.92700005	0	0	0	0	0	1.0
48	23.92700005	0	0	0	0	0	1.0
49	23.92700005	0	0	0	0	0	1.0
50	23.92700005	0	0	0	0	0	1.0
[LeftHandMiddle1]
47	95.33399963	0	0	-0.7494335175	2.874613523	-15.03748703	1.0
48	95.33399963	0	0	-0.7337885499	2.940629721	-14.79958534	1.0
49	95.33399963	0	0	-0.7381075025	2.930473566	-14.8653183	1.0
50	95.33399963	0	0	-0.7514299154	2.884393454	-15.06728554	1.0
[LeftHandMiddle2]
47	36.98199844	0	0	-0.2580901384	1.717424154	-17.0913868	1.0
48	36.98199844	0	0	-0.2583331764	1.718217015	-17.09953308	1.0
49	36.98199844	0	0	-0.259115994	1.720751524	-17.12559128	1.0
50	36.98199844	0	0	-0.26016289	1.724140525	-17.16042137	1.0
[LeftHandMiddle3]
47	29.50900078	0	0	-0.2891895175	1.815439463	-18.10031128	1.0
48	29.50900078	0	0	-0.2894762754	1.816314578	-18.10933685	1.0
49	29.50900078	0	0	-0.2902912498	1.818804979	-18.13504791	1.0
50	29.50900078	0	0	-0.2913700938	1.822097898	-18.16904449	1.0
[LeftHandMiddle4]
47	28.3390007	0	0	0	0	0	1.0
48	28.3390007	0	0	0	0	0	1.0
49	28.3390007	0	0	0	0	0	1.0
50	28.3390007	0	0	0	0	0	1.0
[LeftHandRing1]
47	91.04499817	-0.4390000105	-18.65100098	-1.334336877	3.708371878	-23.10539246	1.0
48	91.04499817	-0.4390000105	-18.65100098	-1.284454107	3.68255806	-22.46617889	1.0
49	91.04499817	-0.4390000105	-18.65100098	-1.256792784	3.642845392	-22.10823059	1.0
50	91.04499817	-0.4390000105	-18.65100098	-1.242085457	3.599122763	-21.91604805	1.0
[LeftHandRing2]
47	31.54000092	0	0	-0.4107096195	2.150896549	-21.60215378	1.0
48	31.54000092	0	0	-0.3849610686	2.085627317	-20.91350365	1.0
49	31.54000092	0	0	-0.3709873557	2.048969269	-20.52846146	1.0
50	31.54000092	0	0	-0.3636706471	2.029067278	-20.32038498	1.0
[LeftHandRing3]
47	29.37700081	0	0	-0.3030831218	1.856369495	-18.52441025	1.0
48	29.37700081	0	0	-0.2807346284	1.789376736	-17.83148384	1.0
49	29.37700081	0	0	-0.2688366771	1.752296329	-17.44939423	1.0
50	29.37700081	0	0	-0.262794435	1.732642055	-17.24768639	1.0
[LeftHandRing4]
47	26.47500038	0	0	0	0	0	1.0
48	26.47500038	0	0	0	0	0	1.0
49	26.47500038	0	0	0	0	0	1.0
50	26.47500038	0	0	0	0	0	1.0
[LeftHandPinky1]
47	80.77799988	-4.887000084	-38.06099701	-1.796783209	5.589505196	-27.97428894	1.0
48	80.77799988	-4.887000084	-38.06099701	-1.77130878	5.719872952	-27.83198357	1.0
49	80.77799988	-4.887000084	-38.06099701	-1.756783366	5.718395233	-27.69991302	1.0
50	80.77799988	-4.887000084	-38.06099701	-1.749680042	5.649784088	-27.58920288	1.0
[LeftHandPinky2]
47	36	0	0	-0.2931947112	1.827643871	-18.22631454	1.0
48	36	0	0	-0.2921660244	1.824513435	-18.19398499	1.0
49	36	0	0	-0.2907156348	1.820095897	-18.14834213	1.0
50	36	0	0	-0.2891867459	1.815434217	-18.10019684	1.0
[LeftHandPinky3]
47	21.14200211	0	0	-0.2643042803	1.737489104	-17.29748535	1.0
48	21.14200211	0	0	-0.2627953291	1.732645154	-17.24772072	1.0
49	21.14200211	0	0	-0.2614156604	1.728193998	-17.20205688	1.0
50	21.14200211	0	0	-0.2602226436	1.724337101	-17.16249084	1.0
[LeftHandPinky4]
47	19.75699997	0	0	0	0	0	1.0
48	19.75699997	0	0	0	0	0	1.0
49	19.75699997	0	0	0	0	0	1.0
50	19.75699997	0	0	0	0	0	1.0
[RightShoulder]
47	-45.70000076	109.4620056	-26.28000069	5.342667103	15.03361607	15.68280983	1.0
48	-45.70000076	109.4620056	-26.28000069	5.350837231	15.06494904	15.6765871	1.0
49	-45.70000076	109.4620056	-26.28000069	5.362805843	15.13735008	15.6080265	1.0
50	-45.70000076	109.4620056	-26.28000069	5.376340866	15.22195625	15.52454376	1.0
[RightArm]
47	-105.9280014	-5.248000145	-22.32099915	31.05530739	2.432762623	62.93701935	1.0
48	-105.9280014	-5.248000145	-22.32099915	31.964571	2.531770706	62.55010223	1.0
49	-105.9280014	-5.248000145	-22.32099915	31.92240143	2.721400738	62.11963654	1.0
50	-105.9280014	-5.248000145	-22.32099915	31.45424271	2.922668934	61.68621063	1.0
[RightForeArm]
47	-278.414978	0	0	-4.827275461e-06	7.171145916	4.145486855e-06	1.0
48	-278.414978	0	0	-7.741551599e-06	7.363027573	-2.925725312e-06	1.0
49	-278.414978	0	0	-5.073824468e-06	7.322205067	-1.148369392e-06	1.0
50	-278.414978	0	0	-2.274088274e-06	7.195046902	1.525824132e-06	1.0
[RightHand]
47	-283.2879944	0	0.0009999999311	-25.18791771	6.321063042	6.373571873	1.0
48	-283.2879944	0	0.0009999999311	-23.46520424	5.662890434	6.760044098	1.0
49	-283.2879944	0	0.0009999999311	-22.73588371	4.969137669	7.025683403	1.0
50	-283.2879944	0	0.0009999999311	-22.35923195	4.261967182	7.182256222	1.0
[RightHandPinky1]
47	-80.76699829	-4.885000229	-38.06000137	-1.833971024	-4.643795013	30.55554962	1.0
48	-80.76699829	-4.885000229	-38.06000137	-1.695380449	-4.5070014	28.68163109	1.0
49	-80.76699829	-4.885000229	-38.06000137	-1.647256374	-4.499542236	28.05226517	1.0
50	-80.76699829	-4.885000229	-38.06000137	-1.639891267	-4.540758133	27.98257637	1.0
[RightHandPinky2]
47	-36	0	0.0009999999311	-0.2157495171	-1.398355484	17.56064987	1.0
48	-36	0	0.0009999999311	-0.2143017203	-1.39377141	17.50130081	1.0
49	-36	0	0.0009999999311	-0.2137947083	-1.392162323	17.4804554	1.0
50	-36	0	0.0009999999311	-0.2136834413	-1.391798139	17.47572708	1.0
[RightHandPinky3]
47	-21.14200211	0	0	-0.194316715	-1.328663111	16.64034843	1.0
48	-21.14200211	0	0	-0.1928821057	-1.32384634	16.5782547	1.0
49	-21.14200211	0	0	-0.1924391091	-1.322370291	16.55918121	1.0
50	-21.14200211	0	0	-0.1924020648	-1.322250128	16.55760956	1.0
[RightHandPinky4]
47	-19.75699997	0	0	0	0	0	1.0
48	-19.75699997	0	0	0	0	0	1.0
49	-19.75699997	0	0	0	0	0	1.0
50	-19.75699997	0	0	0	0	0	1.0
[RightHandRing1]
47	-91.03599548	-0.4390000105	-18.65100098	-1.070097208	-4.326687813	20.8527317	1.0
48	-91.03599548	-0.4390000105	-18.65100098	-1.028392434	-3.587348461	20.21514511	1.0
49	-91.03599548	-0.4390000105	-18.65100098	-1.046310186	-3.142172575	20.49051285	1.0
50	-91.03599548	-0.4390000105	-18.65100098	-1.086412907	-2.859158754	21.10086823	1.0
[RightHandRing2]
47	-31.54000092	0	0	-0.2489159554	-1.50007844	18.86271667	1.0
48	-31.54000092	0	0	-0.2536923289	-1.51313746	19.03449821	1.0
49	-31.54000092	0	0	-0.2710646391	-1.561620831	19.67084503	1.0
50	-31.54000092	0	0	-0.2913914025	-1.618251801	20.41428566	1.0
[RightHandRing3]
47	-29.37700081	0	0	-0.175541088	-1.265168905	15.8224144	1.0
48	-29.37700081	0	0	-0.1795022637	-1.27806592	15.98911667	1.0
49	-29.37700081	0	0	-0.1941939294	-1.327145576	16.6219902	1.0
50	-29.37700081	0	0	-0.2114219815	-1.384590268	17.3628273	1.0
[RightHandRing4]
47	-26.47500038	0	0	0	0	0	1.0
48	-26.47500038	0	0	0	0	0	1.0
49	-26.47500038	0	0	0	0	0	1.0
50	-26.47500038	0	0	0	0	0	1.0
[RightHandMiddle1]
47	-95.32500458	0	0	-0.6770399809	-2.11120677	14.60443878	1.0
48	-95.32500458	0	0	-0.6476223469	-2.0075109	14.09987926	1.0
49	-95.32500458	0	0	-0.6920887828	-2.037714005	14.8467617	1.0
50	-95.32500458	0	0	-0.7598460317	-2.122793198	15.98165512	1.0
[RightHandMiddle2]
47	-36.98199844	0	0	-0.1958190799	-1.333889246	16.70741653	1.0
48	-36.98199844	0	0	-0.1942553073	-1.32848227	16.63791275	1.0
49	-36.98199844	0	0	-0.2007864565	-1.349890471	16.91440582	1.0
50	-36.98199844	0	0	-0.20945324	-1.378295541	17.28126717	1.0
[RightHandMiddle3]
47	-29.50900078	0	0	-0.2200055718	-1.413944364	17.71670151	1.0
48	-29.50900078	0	0	-0.2183508873	-1.408580422	17.6473465	1.0
49	-29.50900078	0	0	-0.2252578139	-1.429872274	17.92391396	1.0
50	-29.50900078	0	0	-0.2344205827	-1.458117604	18.29079056	1.0
[RightHandMiddle4]
47	-28.3390007	0	0.0009999999311	0	0	0	1.0
48	-28.3390007	0	0.0009999999311	0	0	0	1.0
49	-28.3390007	0	0.0009999999311	0	0	0	1.0
50	-28.3390007	0	0.0009999999311	0	0	0	1.0
[RightHandIndex1]
47	-91.08300018	-5.167999744	22.60099792	0.0230796542	1.233092427	9.349822998	1.0
48	-91.08300018	-5.167999744	22.60099792	0.09990937263	1.46742785	7.462609768	1.0
49	-91.08300018	-5.167999744	22.60099792	0.1473704576	1.366032004	6.886685371	1.0
50	-91.08300018	-5.167999744	22.60099792	0.1795429736	1.141003251	6.878168106	1.0
[RightHandIndex2]
47	-36.76399994	0	0	-0.2118240893	-1.385901093	17.37962341	1.0
48	-36.76399994	0	0	-0.2102326304	-1.380804777	17.31365013	1.0
49	-36.76399994	0	0	-0.2085791528	-1.375468373	17.2447052	1.0
50	-36.76399994	0	0	-0.2072072327	-1.371032238	17.18741608	1.0
[RightHandIndex3]
47	-28.83100128	0	0	-0.04543912411	-0.6478408575	8.025177956	1.0
48	-28.83100128	0	0	-0.0447012037	-0.6425533891	7.959299088	1.0
49	-28.83100128	0	0	-0.04393592849	-0.6370385289	7.890527725	1.0
50	-28.83100128	0	0	-0.04330167547	-0.6324597597	7.833414555	1.0
[RightHandIndex4]
47	-23.92700005	0	0	0	0	0	1.0
48	-23.92700005	0	0	0	0	0	1.0
49	-23.92700005	0	0	0	0	0	1.0
50	-23.92700005	0	0	0	0	0	1.0
[RightHandThumb1]
47	-24.64799881	-15.72700024	26.82600021	-2.02838707	-0.1477265507	1.206243157	1.0
48	-24.64799881	-15.72700024	26.82600021	-1.836576581	-0.4956118762	-0.1948087662	1.0
49	-24.64799881	-15.72700024	26.82600021	-1.78844595	-0.2687824965	-2.055143118	1.0
50	-24.64799881	-15.72700024	26.82600021	-1.792047977	0.09912022948	-3.762227774	1.0
[RightHandThumb2]
47	-32.29800034	-18.64699936	18.64699936	23.26966095	-24.85324097	-24.82968521	1.0
48	-32.29800034	-18.64699936	18.64699936	22.27294922	-23.91246033	-24.29148483	1.0
49	-32.29800034	-18.64699936	18.64699936	21.7133255	-23.42859459	-24.0109539	1.0
50	-32.29800034	-18.64699936	18.64699936	21.40961647	-23.19124603	-23.8696785	1.0
[RightHandThumb3]
47	-26.52600098	-15.31399918	15.31399918	-15.09695244	-5.756080151	-11.21256161	1.0
48	-26.52600098	-15.31399918	15.31399918	-14.83789921	-6.28914547	-11.26067162	1.0
49	-26.52600098	-15.31399918	15.31399918	-14.65437508	-6.548870087	-11.31154633	1.0
50	-26.52600098	-15.31399918	15.31399918	-14.53063202	-6.67446661	-11.35318279	1.0
[RightHandThumb4]
47	-19.54599953	-11.28499985	11.28499985	0	0	0	1.0
48	-19.54599953	-11.28499985	11.28499985	0	0	0	1.0
49	-19.54599953	-11.28499985	11.28499985	0	0	0	1.0
50	-19.54599953	-11.28499985	11.28499985	0	0	0	1.0
[LeftUpLeg]
47	82.07800293	-67.51699829	-15.99599934	-12.54211807	16.60557365	8.922012329	1.0
48	82.07800293	-67.51699829	-15.99599934	-12.00575256	16.56208992	8.756319046	1.0
49	82.07800293	-67.51699829	-15.99599934	-11.55440235	16.52441025	8.598804474	1.0
50	82.07800293	-67.51699829	-15.99599934	-11.14371777	16.49077797	8.447969437	1.0
[LeftLeg]
47	0	-443.7049866	2.845999956	17.70920181	1.06825161	4.702801704	1.0
48	0	-443.7049866	2.845999956	17.12274742	1.306240678	4.740535736	1.0
49	0	-443.7049866	2.845999956	16.54693031	1.49694407	4.746094704	1.0
50	0	-443.7049866	2.845999956	15.9737587	1.647735238	4.736531258	1.0
[LeftFoot]
47	0	-444.2789917	-29.8219986	-0.6173574924	0.4736276269	-7.994441509	1.0
48	0	-444.2789917	-29.8219986	-0.3964677453	0.4956226051	-7.94734621	1.0
49	0	-444.2789917	-29.8219986	-0.2037752718	0.5144935846	-7.892793655	1.0
50	0	-444.2789917	-29.8219986	-0.02186163887	0.5322455764	-7.828827381	1.0
[LeftToeBase]
47	0	-87.28699493	107.1060028	-4.663249016	3.8966391e-08	-1.177351123e-06	1.0
48	0	-87.28699493	107.1060028	-4.674182892	6.597273568e-06	-2.083797199e-06	1.0
49	0	-87.28699493	107.1060028	-4.695693493	6.278986802e-06	-1.971626034e-06	1.0
50	0	-87.28699493	107.1060028	-4.720783234	3.313312618e-06	-1.098292614e-06	1.0
[RightUpLeg]
47	-82.07800293	-67.51699829	-15.99599934	-4.216910362	-10.08251572	5.04294014	1.0
48	-82.07800293	-67.51699829	-15.99599934	-3.771053791	-10.11645412	4.757842064	1.0
49	-82.07800293	-67.51699829	-15.99599934	-3.405340195	-10.15733719	4.504921436	1.0
50	-82.07800293	-67.51699829	-15.99599934	-3.071098089	-10.19582176	4.27955246	1.0
[RightLeg]
47	0	-443.7049866	2.861999989	13.53946209	-8.780860901	-5.091550827	1.0
48	0	-443.7049866	2.861999989	12.97072124	-8.595931053	-4.938164234	1.0
49	0	-443.7049866	2.861999989	12.44344521	-8.477550507	-4.799806595	1.0
50	0	-443.7049866	2.861999989	11.92888546	-8.399813652	-4.677995205	1.0
[RightFoot]
47	0	-444.2770081	-29.83799934	-6.964375973	-1.325203896	2.995928288	1.0
48	0	-444.2770081	-29.83799934	-6.668120861	-1.361183643	2.980229139	1.0
49	0	-444.2770081	-29.83799934	-6.373497009	-1.37253046	2.968975067	1.0
50	0	-444.2770081	-29.83799934	-6.077789307	-1.38127923	2.963215828	1.0
[RightToeBase]
47	0	-87.28699493	107.1060028	-7.134072781	-2.355204742e-07	1.345665339e-07	1.0
48	0	-87.28699493	107.1060028	-7.149600029	9.201742614e-06	-6.230498428e-08	1.0
49	0	-87.28699493	107.1060028	-7.165035725	3.187938546e-06	-2.455163042e-07	1.0
50	0	-87.28699493	107.1060028	-7.180382252	-4.653484211e-06	-3.077201995e-07	1.0
[EndOfFile]
